<svg width="82" height="22" viewBox="0 0 82 22" fill="none" xmlns="http://www.w3.org/2000/svg">
<path d="M13.5541 10.5318C13.5328 8.22864 15.4912 7.10814 15.5807 7.05598C14.4716 5.4817 12.7525 5.26661 12.1485 5.24946C10.7047 5.10153 9.30415 6.09055 8.56867 6.09055C7.81851 6.09055 6.68593 5.26375 5.46526 5.28804C3.89447 5.31163 2.42498 6.19702 1.61903 7.57192C-0.0442435 10.3753 1.19624 14.495 2.78978 16.761C3.58692 17.8708 4.51839 19.1099 5.73758 19.0663C6.93035 19.0185 7.3759 18.326 8.8153 18.326C10.2415 18.326 10.6599 19.0663 11.9033 19.0385C13.1834 19.0185 13.9894 17.9237 14.7586 16.8039C15.6798 15.5319 16.0497 14.2792 16.0644 14.2149C16.0343 14.2049 13.5783 13.2923 13.5541 10.5318Z" fill="white"/>
<path d="M11.2053 3.75881C11.8468 2.97775 12.2858 1.91513 12.1639 0.836792C11.2354 0.87681 10.0742 1.46207 9.40551 2.22598C8.81389 2.89914 8.2854 4.00249 8.42193 5.0401C9.46496 5.11584 10.5359 4.52772 11.2053 3.75881Z" fill="white"/>
<path d="M30.8156 18.9069H29.1487L28.2356 16.1135H25.0617L24.1919 18.9069H22.569L25.7135 9.39697H27.6557L30.8156 18.9069ZM27.9603 14.9416L27.1345 12.4583C27.0472 12.2047 26.8835 11.6072 26.642 10.6668H26.6126C26.5165 11.0713 26.3616 11.6687 26.1488 12.4583L25.3377 14.9416H27.9603V14.9416Z" fill="white"/>
<path d="M38.9021 15.3939C38.9021 16.5602 38.5784 17.482 37.931 18.1587C37.3511 18.7612 36.6311 19.062 35.7715 19.062C34.8437 19.062 34.1773 18.7376 33.7713 18.0887H33.742V21.701H32.1771V14.307C32.1771 13.5738 32.1572 12.8214 32.1191 12.0496H33.4954L33.5827 13.1365H33.6121C34.1339 12.3176 34.9259 11.9088 35.9888 11.9088C36.8197 11.9088 37.5133 12.2282 38.0683 12.8678C38.6246 13.5081 38.9021 14.3499 38.9021 15.3939ZM37.3078 15.4497C37.3078 14.7822 37.1537 14.232 36.8439 13.7989C36.5055 13.3473 36.0512 13.1215 35.4816 13.1215C35.0955 13.1215 34.7446 13.2473 34.4312 13.4952C34.1171 13.7453 33.9115 14.0719 33.8154 14.4764C33.7669 14.665 33.7427 14.8194 33.7427 14.9409V16.0842C33.7427 16.583 33.8998 17.0039 34.214 17.3477C34.5281 17.6914 34.9362 17.8629 35.4383 17.8629C36.0277 17.8629 36.4865 17.6414 36.8146 17.1997C37.1434 16.7574 37.3078 16.1743 37.3078 15.4497Z" fill="white"/>
<path d="M47.0037 15.3939C47.0037 16.5602 46.68 17.482 46.0319 18.1587C45.4528 18.7612 44.7327 19.062 43.8732 19.062C42.9454 19.062 42.2789 18.7376 41.8737 18.0887H41.8443V21.701H40.2794V14.307C40.2794 13.5738 40.2596 12.8214 40.2214 12.0496H41.5977L41.6851 13.1365H41.7144C42.2356 12.3176 43.0276 11.9088 44.0912 11.9088C44.9213 11.9088 45.615 12.2282 46.1714 12.8678C46.7255 13.5081 47.0037 14.3499 47.0037 15.3939ZM45.4094 15.4497C45.4094 14.7822 45.2546 14.232 44.9448 13.7989C44.6064 13.3473 44.1535 13.1215 43.5832 13.1215C43.1964 13.1215 42.8463 13.2473 42.5321 13.4952C42.218 13.7453 42.0132 14.0719 41.917 14.4764C41.8693 14.665 41.8443 14.8194 41.8443 14.9409V16.0842C41.8443 16.583 42.0014 17.0039 42.3141 17.3477C42.6283 17.6907 43.0364 17.8629 43.5399 17.8629C44.1293 17.8629 44.5881 17.6414 44.9162 17.1997C45.245 16.7574 45.4094 16.1743 45.4094 15.4497Z" fill="white"/>
<path d="M56.0614 16.2401C56.0614 17.049 55.7729 17.7072 55.1938 18.2153C54.5574 18.7705 53.6714 19.0478 52.533 19.0478C51.4819 19.0478 50.6392 18.8505 50.0013 18.4554L50.3639 17.1855C51.051 17.59 51.8048 17.7929 52.6262 17.7929C53.2156 17.7929 53.6744 17.6629 54.0039 17.4042C54.332 17.1455 54.4957 16.7982 54.4957 16.3651C54.4957 15.9793 54.3607 15.6541 54.0898 15.3904C53.8204 15.1267 53.3705 14.8816 52.7422 14.6551C51.0319 14.0341 50.1775 13.1244 50.1775 11.9282C50.1775 11.1464 50.477 10.5054 51.0767 10.0066C51.6742 9.50709 52.4713 9.25769 53.4681 9.25769C54.357 9.25769 55.0954 9.40847 55.6848 9.70932L55.2936 10.9513C54.7431 10.6597 54.1206 10.514 53.4241 10.514C52.8735 10.514 52.4434 10.6462 52.1351 10.9091C51.8746 11.1442 51.7439 11.4308 51.7439 11.7702C51.7439 12.1461 51.8929 12.457 52.1924 12.7014C52.453 12.9272 52.9264 13.1716 53.6134 13.4353C54.4539 13.7647 55.0712 14.1499 55.4683 14.5915C55.8639 15.0317 56.0614 15.5827 56.0614 16.2401Z" fill="white"/>
<path d="M61.2354 13.1931H59.5104V16.5224C59.5104 17.3692 59.8143 17.7922 60.4236 17.7922C60.7032 17.7922 60.9352 17.7687 61.1187 17.7215L61.162 18.8784C60.8537 18.9906 60.4478 19.0471 59.945 19.0471C59.3269 19.0471 58.844 18.8634 58.4953 18.4968C58.1481 18.1295 57.9734 17.5136 57.9734 16.6482V13.1916H56.9458V12.0483H57.9734V10.7927L59.5104 10.3411V12.0483H61.2354V13.1931Z" fill="white"/>
<path d="M69.018 15.422C69.018 16.476 68.7083 17.3414 68.0902 18.0181C67.4421 18.7149 66.5818 19.0621 65.5094 19.0621C64.4759 19.0621 63.6531 18.7284 63.0395 18.061C62.4258 17.3935 62.119 16.551 62.119 15.5356C62.119 14.473 62.4346 13.6026 63.0681 12.9258C63.7001 12.2484 64.553 11.9097 65.6254 11.9097C66.6589 11.9097 67.4905 12.2434 68.1181 12.9115C68.7185 13.5597 69.018 14.3965 69.018 15.422ZM67.3944 15.4713C67.3944 14.8388 67.2556 14.2964 66.9745 13.8441C66.6464 13.2967 66.1774 13.0237 65.5696 13.0237C64.9406 13.0237 64.4627 13.2974 64.1346 13.8441C63.8535 14.2972 63.7148 14.8481 63.7148 15.4998C63.7148 16.1323 63.8535 16.6747 64.1346 17.1263C64.473 17.6737 64.9457 17.9467 65.5557 17.9467C66.1532 17.9467 66.6222 17.668 66.9606 17.112C67.249 16.6511 67.3944 16.103 67.3944 15.4713Z" fill="white"/>
<path d="M74.1045 13.3895C73.9497 13.3616 73.7845 13.3473 73.6113 13.3473C73.0608 13.3473 72.635 13.5495 72.3356 13.9547C72.075 14.312 71.9443 14.7637 71.9443 15.3089V18.9069H70.3802L70.3948 14.2091C70.3948 13.4188 70.375 12.6992 70.3361 12.0503H71.6992L71.7564 13.3623H71.7997C71.9649 12.9114 72.2255 12.5484 72.5822 12.2761C72.9309 12.031 73.3074 11.9088 73.7133 11.9088C73.8579 11.9088 73.9886 11.9188 74.1045 11.9367V13.3895Z" fill="white"/>
<path d="M81.1033 15.1539C81.1033 15.4269 81.085 15.657 81.0461 15.8449H76.3513C76.3696 16.5223 76.5965 17.0404 77.0325 17.3977C77.4281 17.7172 77.9397 17.8772 78.568 17.8772C79.2631 17.8772 79.8973 17.7693 80.4676 17.5528L80.7128 18.6104C80.0463 18.8934 79.2595 19.0342 78.3515 19.0342C77.2593 19.0342 76.4019 18.7212 75.778 18.0959C75.1556 17.4706 74.8436 16.631 74.8436 15.5776C74.8436 14.5436 75.1336 13.6825 75.7142 12.9958C76.3219 12.2626 77.1433 11.896 78.1768 11.896C79.1919 11.896 79.9604 12.2626 80.4823 12.9958C80.8956 13.5782 81.1033 14.2985 81.1033 15.1539ZM79.6111 14.7587C79.6213 14.3071 79.5193 13.9169 79.3072 13.5875C79.0363 13.1637 78.6201 12.9522 78.0601 12.9522C77.5485 12.9522 77.1323 13.1587 76.8145 13.5732C76.5539 13.9026 76.399 14.2978 76.3513 14.758H79.6111V14.7587Z" fill="white"/>
<path d="M27.4429 3.54667C27.4429 4.38776 27.1838 5.0209 26.6664 5.44609C26.187 5.83841 25.5059 6.03493 24.6236 6.03493C24.1861 6.03493 23.8118 6.01635 23.4984 5.97919V1.38356C23.9072 1.31925 24.3476 1.28638 24.8232 1.28638C25.6637 1.28638 26.2971 1.46431 26.7243 1.82019C27.2029 2.22251 27.4429 2.79777 27.4429 3.54667ZM26.6319 3.5674C26.6319 3.02215 26.4836 2.60411 26.187 2.31255C25.8905 2.0217 25.4574 1.87593 24.8871 1.87593C24.6449 1.87593 24.4386 1.89165 24.2676 1.92452V5.41822C24.3623 5.43251 24.5355 5.43894 24.7873 5.43894C25.376 5.43894 25.8303 5.27959 26.1503 4.96087C26.4704 4.64216 26.6319 4.17767 26.6319 3.5674Z" fill="white"/>
<path d="M31.7435 4.28121C31.7435 4.7993 31.5915 5.22377 31.2877 5.55678C30.9691 5.89907 30.5471 6.06986 30.02 6.06986C29.5121 6.06986 29.1077 5.90622 28.806 5.5775C28.505 5.2495 28.3546 4.83574 28.3546 4.33695C28.3546 3.81529 28.5094 3.38724 28.8207 3.05495C29.1319 2.72266 29.5503 2.55615 30.0773 2.55615C30.5852 2.55615 30.9933 2.7198 31.3023 3.0478C31.596 3.36651 31.7435 3.77813 31.7435 4.28121ZM30.9456 4.3055C30.9456 3.99465 30.8766 3.7281 30.7394 3.50586C30.5779 3.23717 30.3481 3.10282 30.0494 3.10282C29.7404 3.10282 29.5055 3.23717 29.344 3.50586C29.206 3.7281 29.1377 3.99894 29.1377 4.31908C29.1377 4.62994 29.2067 4.89648 29.344 5.11872C29.5106 5.38742 29.7426 5.52176 30.042 5.52176C30.3357 5.52176 30.5661 5.38527 30.732 5.11158C30.8744 4.88505 30.9456 4.61636 30.9456 4.3055Z" fill="white"/>
<path d="M37.51 2.62476L36.4273 5.9934H35.7226L35.2741 4.53061C35.1604 4.16544 35.0679 3.80242 34.996 3.44226H34.982C34.9152 3.81243 34.8227 4.17473 34.7038 4.53061L34.2274 5.9934H33.5147L32.4966 2.62476H33.2872L33.6784 4.22619C33.7731 4.60493 33.8509 4.9658 33.9133 5.30738H33.9272C33.9845 5.02583 34.0792 4.6671 34.2128 4.23333L34.7038 2.62547H35.3307L35.8012 4.19903C35.9149 4.58277 36.0074 4.95222 36.0786 5.3081H36.0999C36.152 4.96151 36.2306 4.59206 36.3348 4.19903L36.7547 2.62547H37.51V2.62476Z" fill="white"/>
<path d="M41.498 5.99347H40.7288V4.06404C40.7288 3.46949 40.4968 3.17221 40.0315 3.17221C39.8032 3.17221 39.619 3.25368 39.4758 3.41732C39.3342 3.58096 39.2622 3.77391 39.2622 3.99472V5.99275H38.493V3.5874C38.493 3.29155 38.4834 2.97069 38.4651 2.62339H39.1411L39.1771 3.15006H39.1984C39.2879 2.98641 39.4215 2.85135 39.5969 2.74345C39.8054 2.61768 40.0388 2.55408 40.2942 2.55408C40.6172 2.55408 40.8859 2.65555 41.0995 2.85921C41.3652 3.10861 41.498 3.48092 41.498 3.97543V5.99347V5.99347Z" fill="white"/>
<path d="M43.6191 5.99344H42.8506V1.0791H43.6191V5.99344Z" fill="white"/>
<path d="M48.1481 4.28121C48.1481 4.7993 47.9962 5.22377 47.6923 5.55678C47.3737 5.89907 46.9509 6.06986 46.4246 6.06986C45.916 6.06986 45.5115 5.90622 45.2106 5.5775C44.9096 5.2495 44.7592 4.83574 44.7592 4.33695C44.7592 3.81529 44.914 3.38724 45.2253 3.05495C45.5365 2.72266 45.9549 2.55615 46.4812 2.55615C46.9898 2.55615 47.3972 2.7198 47.707 3.0478C48.0006 3.36651 48.1481 3.77813 48.1481 4.28121ZM47.3495 4.3055C47.3495 3.99465 47.2805 3.7281 47.1432 3.50586C46.9825 3.23717 46.752 3.10282 46.454 3.10282C46.1442 3.10282 45.9094 3.23717 45.7486 3.50586C45.6106 3.7281 45.5423 3.99894 45.5423 4.31908C45.5423 4.62994 45.6113 4.89648 45.7486 5.11872C45.9152 5.38742 46.1472 5.52176 46.4467 5.52176C46.7403 5.52176 46.97 5.38527 47.1359 5.11158C47.279 4.88505 47.3495 4.61636 47.3495 4.3055Z" fill="white"/>
<path d="M51.8711 5.9934H51.1804L51.1231 5.60537H51.1018C50.8655 5.91479 50.5286 6.06986 50.0911 6.06986C49.7645 6.06986 49.5002 5.96767 49.3013 5.76473C49.1207 5.58036 49.0305 5.35097 49.0305 5.07871C49.0305 4.66709 49.2066 4.35338 49.5611 4.13614C49.9149 3.9189 50.4126 3.81243 51.0534 3.81743V3.75454C51.0534 3.31077 50.8141 3.08925 50.3348 3.08925C49.9935 3.08925 49.6925 3.17286 49.4327 3.33864L49.2764 2.847C49.5978 2.65334 49.995 2.55615 50.4633 2.55615C51.3676 2.55615 51.8212 3.02065 51.8212 3.94963V5.19019C51.8212 5.52676 51.8381 5.79474 51.8711 5.9934ZM51.0725 4.83574V4.31622C50.224 4.30193 49.7997 4.52846 49.7997 4.9951C49.7997 5.17089 49.8481 5.30238 49.9472 5.39027C50.0463 5.47817 50.1726 5.52176 50.3231 5.52176C50.4919 5.52176 50.6497 5.4696 50.7936 5.36598C50.9382 5.26165 51.027 5.12944 51.06 4.96723C51.0681 4.93078 51.0725 4.88648 51.0725 4.83574Z" fill="white"/>
<path d="M56.2417 5.99344H55.5591L55.5231 5.45248H55.5018C55.2838 5.8641 54.9124 6.0699 54.3905 6.0699C53.9736 6.0699 53.6264 5.91055 53.3512 5.59183C53.0759 5.27312 52.9387 4.85936 52.9387 4.35128C52.9387 3.80603 53.0877 3.36441 53.3871 3.02711C53.6771 2.71269 54.0323 2.55547 54.4551 2.55547C54.9198 2.55547 55.2449 2.70769 55.4299 3.01282H55.4446V1.0791H56.2146V5.08589C56.2146 5.41389 56.2234 5.71617 56.2417 5.99344ZM55.4446 4.5728V4.01113C55.4446 3.91394 55.4372 3.83533 55.4233 3.77531C55.38 3.59523 55.2868 3.44373 55.1451 3.32153C55.002 3.19933 54.8295 3.13788 54.6306 3.13788C54.3436 3.13788 54.119 3.24864 53.9538 3.47088C53.7901 3.69313 53.7072 3.97682 53.7072 4.32341C53.7072 4.65641 53.7857 4.92653 53.9435 5.13448C54.1101 5.35601 54.3348 5.46678 54.6159 5.46678C54.8684 5.46678 55.0702 5.37459 55.2236 5.18951C55.3719 5.01872 55.4446 4.81291 55.4446 4.5728Z" fill="white"/>
<path d="M62.8209 4.28121C62.8209 4.7993 62.6689 5.22377 62.3651 5.55678C62.0465 5.89907 61.6252 6.06986 61.0974 6.06986C60.5902 6.06986 60.1858 5.90622 59.8834 5.5775C59.5824 5.2495 59.4319 4.83574 59.4319 4.33695C59.4319 3.81529 59.5868 3.38724 59.898 3.05495C60.2093 2.72266 60.6277 2.55615 61.1554 2.55615C61.6626 2.55615 62.0715 2.7198 62.3797 3.0478C62.6733 3.36651 62.8209 3.77813 62.8209 4.28121ZM62.0237 4.3055C62.0237 3.99465 61.9547 3.7281 61.8175 3.50586C61.6553 3.23717 61.4263 3.10282 61.1268 3.10282C60.8185 3.10282 60.5836 3.23717 60.4214 3.50586C60.2834 3.7281 60.2151 3.99894 60.2151 4.31908C60.2151 4.62994 60.2841 4.89648 60.4214 5.11872C60.588 5.38742 60.82 5.52176 61.1194 5.52176C61.413 5.52176 61.6443 5.38527 61.8102 5.11158C61.9518 4.88505 62.0237 4.61636 62.0237 4.3055Z" fill="white"/>
<path d="M66.957 5.99347H66.1884V4.06404C66.1884 3.46949 65.9565 3.17221 65.4904 3.17221C65.2621 3.17221 65.0779 3.25368 64.9355 3.41732C64.7931 3.58096 64.7219 3.77391 64.7219 3.99472V5.99275H63.9519V3.5874C63.9519 3.29155 63.9431 2.97069 63.9247 2.62339H64.6L64.636 3.15006H64.6573C64.7476 2.98641 64.8812 2.85135 65.0559 2.74345C65.2651 2.61768 65.4977 2.55408 65.7539 2.55408C66.0761 2.55408 66.3448 2.65555 66.5584 2.85921C66.8248 3.10861 66.957 3.48092 66.957 3.97543V5.99347V5.99347Z" fill="white"/>
<path d="M72.1338 3.1858H71.2868V4.82224C71.2868 5.23814 71.4373 5.44609 71.7353 5.44609C71.8733 5.44609 71.9878 5.43466 72.0781 5.41108L72.0979 5.97919C71.9459 6.03493 71.7463 6.0628 71.5004 6.0628C71.1965 6.0628 70.9601 5.97276 70.7891 5.79268C70.6174 5.6126 70.5322 5.3096 70.5322 4.88441V3.1858H70.0265V2.62483H70.5322V2.00742L71.2861 1.78589V2.62412H72.1331V3.1858H72.1338Z" fill="white"/>
<path d="M76.2065 5.99344H75.4365V4.0783C75.4365 3.47446 75.2045 3.17218 74.7399 3.17218C74.3832 3.17218 74.1395 3.34726 74.0059 3.69741C73.9831 3.77102 73.9699 3.86106 73.9699 3.96682V5.99272H73.2014V1.0791H73.9699V3.10929H73.9846C74.2268 2.73984 74.574 2.55547 75.024 2.55547C75.3425 2.55547 75.606 2.65695 75.8152 2.86061C76.0758 3.1143 76.2065 3.49161 76.2065 3.9904V5.99344V5.99344Z" fill="white"/>
<path d="M80.4072 4.14968C80.4072 4.28403 80.397 4.39694 80.3786 4.48912H78.0716C78.0819 4.82213 78.192 5.07581 78.4056 5.2516C78.6008 5.40882 78.8526 5.48742 79.1609 5.48742C79.5022 5.48742 79.8134 5.43454 80.0938 5.32807L80.2142 5.8483C79.8861 5.98693 79.5 6.05625 79.053 6.05625C78.5172 6.05625 78.0951 5.90261 77.7898 5.59533C77.4829 5.28805 77.331 4.87572 77.331 4.35835C77.331 3.85026 77.4727 3.42722 77.7582 3.08992C78.0562 2.72976 78.4592 2.54968 78.9678 2.54968C79.4655 2.54968 79.8435 2.72976 80.099 3.08992C80.3052 3.37577 80.4072 3.72949 80.4072 4.14968ZM79.6732 3.95602C79.6791 3.73378 79.6285 3.54227 79.5242 3.38077C79.3906 3.17282 79.1873 3.06849 78.9121 3.06849C78.661 3.06849 78.4562 3.16996 78.2999 3.37362C78.1722 3.53584 78.0966 3.72949 78.0716 3.95602H79.6732Z" fill="white"/>
</svg>
