<svg width="90" height="21" viewBox="0 0 90 21" fill="none" xmlns="http://www.w3.org/2000/svg">
<path d="M45.3084 11.3597C44.6615 11.3627 44.03 11.5521 43.4936 11.9042C42.9573 12.2562 42.54 12.7551 42.2946 13.3378C42.0491 13.9205 41.9865 14.5609 42.1145 15.1782C42.2426 15.7955 42.5556 16.3621 43.0141 16.8064C43.4726 17.2506 44.056 17.5527 44.6907 17.6745C45.3254 17.7963 45.9829 17.7323 46.5803 17.4906C47.1776 17.2489 47.6881 16.8404 48.0472 16.3165C48.4062 15.7927 48.5979 15.177 48.5979 14.5472C48.6042 14.1257 48.5233 13.7072 48.36 13.3167C48.1967 12.9262 47.9544 12.5717 47.6474 12.2743C47.3405 11.9769 46.9753 11.7427 46.5734 11.5856C46.1716 11.4284 45.7414 11.3516 45.3084 11.3597V11.3597ZM45.3084 16.4822C44.9106 16.5093 44.5136 16.4192 44.169 16.2237C43.8244 16.0283 43.5482 15.7364 43.3763 15.386C43.2044 15.0357 43.1447 14.6431 43.205 14.2593C43.2653 13.8755 43.4429 13.5183 43.7145 13.234C43.9861 12.9497 44.3393 12.7516 44.7281 12.6653C45.117 12.579 45.5235 12.6086 45.8948 12.7503C46.2661 12.8919 46.5851 13.139 46.8102 13.4595C47.0354 13.78 47.1563 14.1589 47.1573 14.5472C47.1697 14.7932 47.1314 15.0392 47.0446 15.2705C46.9578 15.5019 46.8243 15.714 46.652 15.8943C46.4797 16.0747 46.2721 16.2196 46.0413 16.3206C45.8105 16.4215 45.5613 16.4765 45.3084 16.4822ZM38.1363 11.3597C37.489 11.3612 36.8568 11.5494 36.3194 11.9005C35.782 12.2517 35.3635 12.75 35.1169 13.3326C34.8703 13.9152 34.8065 14.5558 34.9337 15.1736C35.0609 15.7915 35.3734 16.3587 35.8316 16.8037C36.2898 17.2488 36.8731 17.5516 37.508 17.674C38.1429 17.7964 38.8009 17.7328 39.3987 17.4913C39.9965 17.2499 40.5074 16.8413 40.8668 16.3173C41.2262 15.7933 41.418 15.1773 41.418 14.5472C41.4243 14.1257 41.3434 13.7072 41.1801 13.3167C41.0168 12.9262 40.7745 12.5717 40.4676 12.2743C40.1607 11.9769 39.7954 11.7427 39.3936 11.5856C38.9917 11.4284 38.5615 11.3516 38.1285 11.3597H38.1363ZM38.1363 16.4822C37.7382 16.5108 37.3406 16.4221 36.9951 16.2276C36.6495 16.0331 36.3722 15.7419 36.199 15.3918C36.0259 15.0417 35.9651 14.6489 36.0244 14.2647C36.0838 13.8805 36.2606 13.5225 36.5318 13.2375C36.803 12.9524 37.1561 12.7535 37.5451 12.6665C37.9341 12.5796 38.341 12.6087 38.7128 12.75C39.0845 12.8913 39.404 13.1383 39.6296 13.4589C39.8551 13.7794 39.9764 14.1587 39.9774 14.5472C39.9898 14.7932 39.9515 15.0392 39.8648 15.2705C39.778 15.5019 39.6445 15.714 39.4722 15.8943C39.2999 16.0747 39.0922 16.2196 38.8614 16.3206C38.6307 16.4215 38.3815 16.4765 38.1285 16.4822H38.1363ZM29.5928 12.3422V13.6922H32.9208C32.8687 14.3281 32.5972 14.9281 32.1505 15.3947C31.8175 15.7249 31.4173 15.9835 30.9754 16.154C30.5336 16.3246 30.06 16.4031 29.5851 16.3847C28.6044 16.3847 27.6639 16.0054 26.9704 15.3303C26.277 14.6552 25.8874 13.7395 25.8874 12.7847C25.8874 11.8299 26.277 10.9143 26.9704 10.2391C27.6639 9.56399 28.6044 9.18471 29.5851 9.18471C30.5233 9.16981 31.4292 9.51775 32.1043 10.1522L33.0826 9.19971C32.6269 8.75048 32.0833 8.39487 31.4838 8.15396C30.8844 7.91305 30.2413 7.79173 29.5928 7.79721C28.908 7.77126 28.2248 7.88018 27.5842 8.11743C26.9436 8.35469 26.3588 8.71541 25.8648 9.17796C25.3709 9.64052 24.9779 10.1954 24.7095 10.8094C24.441 11.4233 24.3027 12.0837 24.3027 12.751C24.3027 13.4182 24.441 14.0786 24.7095 14.6926C24.9779 15.3065 25.3709 15.8614 25.8648 16.324C26.3588 16.7865 26.9436 17.1472 27.5842 17.3845C28.2248 17.6217 28.908 17.7307 29.5928 17.7047C30.2522 17.7337 30.9104 17.6249 31.523 17.3856C32.1355 17.1462 32.6884 16.7819 33.1443 16.3172C33.9513 15.4539 34.3823 14.319 34.346 13.1522C34.3485 12.8679 34.3227 12.5841 34.269 12.3047L29.5928 12.3422ZM64.4983 13.3922C64.2974 12.8168 63.9217 12.3143 63.421 11.9513C62.9202 11.5884 62.318 11.3821 61.6942 11.3597C61.2728 11.3589 60.8557 11.4423 60.4687 11.6046C60.0817 11.767 59.733 12.0049 59.4442 12.3036C59.1554 12.6024 58.9326 12.9556 58.7896 13.3415C58.6466 13.7274 58.5864 14.1378 58.6127 14.5472C58.6033 14.9664 58.6808 15.3831 58.8406 15.7725C59.0004 16.1618 59.2391 16.5159 59.5426 16.8134C59.846 17.1109 60.208 17.3458 60.6068 17.5041C61.0056 17.6624 61.433 17.7409 61.8637 17.7347C62.4025 17.7375 62.9337 17.6102 63.4096 17.3641C63.8856 17.1181 64.2914 16.7609 64.5908 16.3247L63.4737 15.5747C63.307 15.8453 63.071 16.0691 62.7888 16.2242C62.5065 16.3794 62.1878 16.4605 61.8637 16.4597C61.53 16.4721 61.2002 16.3864 60.9171 16.2139C60.6341 16.0413 60.411 15.7899 60.2767 15.4922L64.6601 13.7297L64.4983 13.3922ZM60.0302 14.4572C60.0146 14.2252 60.0466 13.9925 60.1246 13.7728C60.2025 13.553 60.3246 13.3506 60.4839 13.1774C60.6432 13.0042 60.8363 12.8636 61.0521 12.764C61.2678 12.6644 61.5018 12.6077 61.7404 12.5972C61.9889 12.5813 62.2367 12.6367 62.4531 12.7567C62.6695 12.8767 62.8449 13.056 62.9576 13.2722L60.0302 14.4572ZM56.4711 17.5472H57.9117V8.17221H56.4711V17.5472ZM54.1137 12.0722H54.0598C53.8427 11.8359 53.5767 11.6469 53.2793 11.5176C52.9819 11.3884 52.6599 11.3218 52.3342 11.3222C51.4923 11.362 50.6984 11.7155 50.117 12.3096C49.5356 12.9038 49.2114 13.6929 49.2114 14.5135C49.2114 15.334 49.5356 16.1231 50.117 16.7173C50.6984 17.3114 51.4923 17.665 52.3342 17.7047C52.6606 17.7101 52.9843 17.6457 53.2825 17.5161C53.5806 17.3865 53.8459 17.1949 54.0598 16.9547H54.106V17.4122C54.106 18.6347 53.4358 19.2872 52.3573 19.2872C51.9981 19.279 51.6495 19.167 51.3559 18.9653C51.0623 18.7636 50.837 18.4814 50.7087 18.1547L49.453 18.6647C49.6894 19.2245 50.0921 19.7027 50.6096 20.0381C51.127 20.3736 51.7356 20.5508 52.3573 20.5472C54.0444 20.5472 55.4388 19.5797 55.4388 17.2247V11.5472H54.1137V12.0722ZM52.4651 16.4822C51.9682 16.4396 51.5057 16.2173 51.1688 15.8591C50.8319 15.5009 50.645 15.0329 50.645 14.5472C50.645 14.0615 50.8319 13.5935 51.1688 13.2353C51.5057 12.8772 51.9682 12.6548 52.4651 12.6122C52.7115 12.6245 52.9529 12.6847 53.175 12.7892C53.3971 12.8938 53.5955 13.0405 53.7585 13.2208C53.9214 13.4012 54.0457 13.6114 54.1239 13.8392C54.2021 14.067 54.2327 14.3077 54.2139 14.5472C54.2349 14.7877 54.2056 15.0299 54.1277 15.2591C54.0499 15.4882 53.9251 15.6997 53.7609 15.8805C53.5967 16.0614 53.3965 16.208 53.1725 16.3114C52.9484 16.4148 52.7052 16.4729 52.4574 16.4822H52.4651ZM71.2468 8.17221H67.8032V17.5472H69.2438V13.9922H71.2545C71.665 14.0209 72.0773 13.967 72.4655 13.8338C72.8537 13.7005 73.2096 13.4909 73.5109 13.2178C73.8122 12.9448 74.0525 12.6143 74.2168 12.2468C74.3811 11.8794 74.4659 11.483 74.4659 11.0822C74.4659 10.6815 74.3811 10.285 74.2168 9.91758C74.0525 9.55015 73.8122 9.21962 73.5109 8.94659C73.2096 8.67356 72.8537 8.46389 72.4655 8.33066C72.0773 8.19743 71.665 8.14349 71.2545 8.17221H71.2468ZM71.2468 12.6722H69.2361V9.47721H71.2776C71.7158 9.47721 72.1361 9.6467 72.446 9.9484C72.7559 10.2501 72.93 10.6593 72.93 11.086C72.93 11.5126 72.7559 11.9218 72.446 12.2235C72.1361 12.5252 71.7158 12.6947 71.2776 12.6947L71.2468 12.6722ZM80.1291 11.3222C79.6047 11.2917 79.0825 11.411 78.6267 11.6655C78.171 11.92 77.8015 12.2986 77.5638 12.7547L78.8426 13.2722C78.9687 13.046 79.1596 12.8603 79.3921 12.7378C79.6247 12.6153 79.8887 12.5612 80.1522 12.5822C80.3351 12.5614 80.5204 12.5763 80.6973 12.626C80.8742 12.6756 81.0392 12.7591 81.1826 12.8715C81.3261 12.9839 81.4451 13.123 81.5327 13.2806C81.6203 13.4383 81.6748 13.6113 81.693 13.7897V13.8872C81.2303 13.6487 80.7143 13.5251 80.1908 13.5272C78.8118 13.5272 77.4174 14.2772 77.4174 15.6347C77.431 15.9242 77.5041 16.208 77.6324 16.4695C77.7606 16.731 77.9414 16.9648 78.164 17.1571C78.3867 17.3493 78.6467 17.4962 78.9286 17.589C79.2106 17.6818 79.5088 17.7186 79.8056 17.6972C80.1684 17.7226 80.5315 17.6524 80.8568 17.494C81.1821 17.3357 81.4576 17.095 81.6545 16.7972H81.7007V17.5472H83.0874V13.9397C83.0874 12.2972 81.8085 11.3447 80.1677 11.3447L80.1291 11.3222ZM79.9519 16.4597C79.482 16.4597 78.8272 16.2272 78.8272 15.6647C78.8272 14.9147 79.6438 14.6672 80.368 14.6672C80.8256 14.6562 81.2779 14.765 81.6776 14.9822C81.6294 15.3883 81.4321 15.7637 81.1221 16.0393C80.8121 16.315 80.4102 16.4722 79.9905 16.4822L79.9519 16.4597ZM88.141 11.5472L86.4924 15.6122H86.4462L84.736 11.5472H83.1952L85.7605 17.2322L84.2968 20.3897H85.7991L89.7434 11.5472H88.141ZM75.1911 17.5472H76.6317V8.17221H75.1911V17.5472Z" fill="white"/>
<path d="M29.2983 2.77402C29.3114 3.04911 29.267 3.32393 29.1676 3.58178C29.0683 3.83963 28.9162 4.07514 28.7205 4.27402C28.5021 4.49497 28.2382 4.6686 27.9462 4.78362C27.6542 4.89863 27.3405 4.95243 27.0257 4.94152C26.5481 4.93788 26.0822 4.79709 25.6864 4.53678C25.2905 4.27648 24.9824 3.90824 24.8007 3.47821C24.6189 3.04817 24.5715 2.57547 24.6644 2.11934C24.7574 1.6632 24.9866 1.24392 25.3232 0.914022C25.5445 0.694109 25.8097 0.520738 26.1026 0.404634C26.3954 0.28853 26.7096 0.232163 27.0257 0.239022C27.3514 0.237966 27.6739 0.301773 27.9733 0.426522C28.252 0.535987 28.5002 0.70819 28.6974 0.929022L28.2891 1.32652C28.1354 1.14847 27.9412 1.00767 27.7219 0.915249C27.5027 0.822832 27.2643 0.78133 27.0257 0.794022C26.7851 0.792873 26.5467 0.839042 26.3248 0.929763C26.103 1.02048 25.9022 1.15389 25.7346 1.32198C25.567 1.49006 25.436 1.68937 25.3494 1.90796C25.2628 2.12654 25.2225 2.35989 25.2308 2.59402C25.2257 2.94362 25.3271 3.28685 25.5222 3.5804C25.7173 3.87395 25.9973 4.10467 26.327 4.24347C26.6566 4.38226 27.021 4.4229 27.3744 4.36026C27.7277 4.29763 28.054 4.13452 28.3122 3.89152C28.5493 3.64142 28.686 3.31665 28.6974 2.97652H27.0257V2.43652H29.2675C29.2881 2.54791 29.2984 2.66085 29.2983 2.77402ZM32.8266 0.899021H30.7466V2.32402H32.6417V2.86402H30.7466V4.28902H32.8266V4.84402H30.1303V0.344022H32.8266V0.899021ZM35.3534 4.84402H34.7602V0.899021H33.466V0.344022H36.6785V0.899021H35.3534V4.84402ZM38.9434 4.84402V0.344022H39.5365V4.84402H38.9434ZM42.1712 4.84402H41.578V0.899021H40.2838V0.344022H43.4577V0.899021H42.1712V4.84402ZM49.4743 4.25902C49.024 4.69503 48.4146 4.93977 47.7795 4.93977C47.1444 4.93977 46.5351 4.69503 46.0847 4.25902C45.6469 3.80791 45.4031 3.21085 45.4031 2.59027C45.4031 1.96969 45.6469 1.37263 46.0847 0.921522C46.3067 0.70383 46.5707 0.531053 46.8616 0.41315C47.1525 0.295246 47.4644 0.234546 47.7795 0.234546C48.0946 0.234546 48.4066 0.295246 48.6974 0.41315C48.9883 0.531053 49.2523 0.70383 49.4743 0.921522C49.9138 1.37177 50.1589 1.96916 50.1589 2.59027C50.1589 3.21139 49.9138 3.80878 49.4743 4.25902ZM46.5238 3.88402C46.8573 4.20736 47.3088 4.3889 47.7795 4.3889C48.2502 4.3889 48.7017 4.20736 49.0352 3.88402C49.3643 3.53079 49.5467 3.07094 49.5467 2.59402C49.5467 2.1171 49.3643 1.65726 49.0352 1.30402C48.7017 0.98068 48.2502 0.799142 47.7795 0.799142C47.3088 0.799142 46.8573 0.98068 46.5238 1.30402C46.1947 1.65726 46.0124 2.1171 46.0124 2.59402C46.0124 3.07094 46.1947 3.53079 46.5238 3.88402ZM50.992 4.84402V0.344022H51.7161L53.9656 3.84652V0.344022H54.5588V4.84402H53.9425L51.5928 1.17652V4.84402H50.992Z" fill="white"/>
<path fill-rule="evenodd" clip-rule="evenodd" d="M47.7795 0.309546C47.4746 0.309546 47.1727 0.368288 46.8912 0.482388C46.61 0.596369 46.3547 0.763342 46.14 0.973701C45.7162 1.41081 45.4801 1.98916 45.4801 2.59027C45.4801 3.19131 45.7162 3.76959 46.1399 4.20667C46.5757 4.62819 47.1651 4.86478 47.7795 4.86478C48.3939 4.86478 48.9834 4.62815 49.4192 4.20658C49.8446 3.77036 50.0818 3.1918 50.0818 2.59027C50.0818 1.98867 49.8446 1.41004 49.4191 0.973799C49.2044 0.763394 48.9491 0.596387 48.6678 0.482388C48.3863 0.368288 48.0844 0.309546 47.7795 0.309546ZM46.832 0.343911C47.1322 0.222204 47.4543 0.159546 47.7795 0.159546C48.1048 0.159546 48.4268 0.222204 48.727 0.343911C49.0273 0.465618 49.2998 0.643968 49.529 0.868682L49.5302 0.869846C49.9833 1.33403 50.2359 1.94993 50.2359 2.59027C50.2359 3.23062 49.9833 3.8465 49.5302 4.31069L49.5287 4.31222C49.0639 4.76221 48.435 5.01477 47.7795 5.01477C47.124 5.01477 46.4952 4.76219 46.0304 4.3122L46.0287 4.31055C45.5774 3.84552 45.326 3.23001 45.326 2.59027C45.326 1.95054 45.5774 1.33505 46.0287 0.870017L46.03 0.868666C46.2591 0.643951 46.5317 0.465618 46.832 0.343911ZM27.024 0.314003C26.7184 0.307373 26.4147 0.361861 26.1316 0.474095C25.8485 0.586329 25.5921 0.753921 25.3782 0.966503L25.3779 0.966883C25.0519 1.28631 24.83 1.69228 24.74 2.13393C24.65 2.57559 24.6959 3.03328 24.8719 3.44966C25.0479 3.86604 25.3462 4.22259 25.7295 4.47464C26.1127 4.72668 26.5639 4.863 27.0263 4.86652L27.0285 4.86654C27.3325 4.87708 27.6353 4.82515 27.9173 4.71409C28.1993 4.60304 28.454 4.4354 28.665 4.22208C28.8534 4.03056 28.9999 3.80376 29.0955 3.55544C29.1912 3.30711 29.234 3.04243 29.2214 2.77749L29.2983 2.77402L29.2213 2.77399C29.2213 2.68614 29.2149 2.59842 29.202 2.51152H27.1028V2.90152H28.777L28.7744 2.97897C28.7624 3.33709 28.6185 3.67905 28.3689 3.94238L28.3659 3.94553C28.0967 4.19883 27.7565 4.36876 27.3882 4.43405C27.0199 4.49934 26.64 4.45698 26.2964 4.3123C25.9528 4.16763 25.6609 3.92713 25.4575 3.62114C25.2545 3.31566 25.1488 2.95857 25.1537 2.59479C25.1453 2.35118 25.1874 2.10841 25.2775 1.88097C25.3678 1.65297 25.5045 1.44507 25.6793 1.26973C25.8542 1.0944 26.0636 0.955246 26.295 0.860615C26.5257 0.766271 26.7736 0.718117 27.0238 0.719013C27.2736 0.706073 27.523 0.74968 27.7525 0.846422C27.9571 0.932636 28.1408 1.05895 28.2925 1.21717L28.5912 0.926422C28.4103 0.739316 28.1897 0.592389 27.9445 0.496077L27.943 0.495488C27.6532 0.374764 27.3412 0.312999 27.026 0.314022L27.024 0.314003ZM29.3754 2.7723C29.3887 3.05696 29.3425 3.34129 29.2398 3.60811C29.1368 3.87548 28.9791 4.11968 28.7762 4.3259C28.5502 4.55444 28.2772 4.73418 27.9751 4.85314C27.6734 4.97198 27.3493 5.02764 27.0241 5.01651C26.5316 5.01255 26.0513 4.86731 25.6432 4.59893C25.2349 4.33036 24.917 3.95043 24.7294 3.50675C24.5419 3.06307 24.493 2.57536 24.5889 2.10474C24.6848 1.63421 24.9211 1.20169 25.2684 0.861349C25.497 0.634196 25.771 0.455113 26.0735 0.335173C26.3758 0.215319 26.7001 0.157071 27.0265 0.164019C27.362 0.163062 27.6943 0.228819 28.0029 0.357263C28.2926 0.471174 28.5505 0.650237 28.7556 0.879811L28.8027 0.932595L28.2842 1.43737L28.2302 1.37478C28.0841 1.20563 27.8996 1.07187 27.6913 0.984076C27.483 0.896279 27.2566 0.856852 27.0299 0.86891L27.0254 0.869154C26.7951 0.868054 26.567 0.912101 26.3547 0.998911C26.1424 1.08572 25.9503 1.21338 25.7899 1.37422C25.6295 1.53506 25.5041 1.72578 25.4213 1.93494C25.3384 2.1441 25.2998 2.3674 25.3078 2.59143L25.3079 2.59508C25.3031 2.92986 25.4001 3.25854 25.5869 3.53966C25.7737 3.82077 26.0419 4.04172 26.3575 4.17463C26.6732 4.30754 27.0222 4.34646 27.3606 4.28648C27.6982 4.22663 28.0101 4.07097 28.2571 3.83909C28.4627 3.62152 28.5882 3.34454 28.6155 3.05152H26.9487V2.36152H29.3319L29.3433 2.42326C29.3646 2.53846 29.3753 2.65526 29.3754 2.7723ZM30.0533 0.269022H32.9037V0.974021H30.8237V2.24902H32.7188V2.93902H30.8237V4.21402H32.9037V4.91902H30.0533V0.269022ZM30.2074 0.419022V4.76902H32.7496V4.36402H30.6696V2.78902H32.5647V2.39902H30.6696V0.824021H32.7496V0.419022H30.2074ZM33.389 0.269022H36.7555V0.974021H35.4305V4.91902H34.6832V0.974021H33.389V0.269022ZM33.5431 0.419022V0.824021H34.8373V4.76902H35.2764V0.824021H36.6014V0.419022H33.5431ZM38.8663 0.269022H39.6136V4.91902H38.8663V0.269022ZM39.0204 0.419022V4.76902H39.4595V0.419022H39.0204ZM40.2068 0.269022H43.5348V0.974021H42.2482V4.91902H41.501V0.974021H40.2068V0.269022ZM40.3608 0.419022V0.824021H41.6551V4.76902H42.0942V0.824021H43.3807V0.419022H40.3608ZM50.9149 0.269022H51.7588L53.8885 3.58511V0.269022H54.6358V4.91902H53.8997L51.6699 1.43849V4.91902H50.9149V0.269022ZM51.069 0.419022V4.76902H51.5158V0.914558L53.9852 4.76902H54.4817V0.419022H54.0426V4.10794L51.6734 0.419022H51.069ZM46.4694 1.25088C46.8174 0.913539 47.2885 0.724142 47.7795 0.724142C48.2706 0.724142 48.7416 0.913539 49.0896 1.25088L49.0923 1.25357C49.4343 1.6206 49.6237 2.09848 49.6237 2.59402C49.6237 3.08957 49.4343 3.56738 49.0923 3.93441L49.0896 3.93723C48.7417 4.27457 48.2706 4.4639 47.7795 4.4639C47.2885 4.4639 46.8174 4.2745 46.4694 3.93717L46.5238 3.88402L46.4667 3.93441C46.1248 3.56738 45.9353 3.08957 45.9353 2.59402C45.9353 2.09848 46.1248 1.62067 46.4667 1.25363L46.4694 1.25088ZM46.5796 3.83223C46.8985 4.14073 47.3299 4.3139 47.7795 4.3139C48.2292 4.3139 48.6605 4.14073 48.9795 3.83223C49.2949 3.49298 49.4696 3.05168 49.4696 2.59402C49.4696 2.13637 49.2949 1.69507 48.9795 1.35582C48.6605 1.04732 48.2292 0.874142 47.7795 0.874142C47.3299 0.874142 46.8985 1.04732 46.5796 1.35582C46.2641 1.69507 46.0894 2.13637 46.0894 2.59402C46.0894 3.05168 46.2641 3.49298 46.5796 3.83223Z" fill="white"/>
<path d="M0.858046 0.702159C0.606956 0.995491 0.48022 1.37101 0.503675 1.75216V18.3422C0.48022 18.7233 0.606956 19.0988 0.858046 19.3922L0.911972 19.4447L10.4569 10.1597V9.94216L0.911972 0.649658L0.858046 0.702159Z" fill="url(#paint0_linear_23630_38)"/>
<path d="M13.6154 13.2572L10.4568 10.1597V9.94216L13.6154 6.83716L13.6847 6.87466L17.4672 8.96716C18.5457 9.55966 18.5457 10.5347 17.4672 11.1347L13.7001 13.2197L13.6154 13.2572Z" fill="url(#paint1_linear_23630_38)"/>
<path d="M13.7078 13.2121L10.4568 10.0471L0.858032 19.3921C1.07787 19.5803 1.3583 19.6877 1.65088 19.6959C1.94346 19.7042 2.22979 19.6126 2.4604 19.4371L13.7155 13.2121" fill="url(#paint2_linear_23630_38)"/>
<path d="M13.7077 6.88216L2.45259 0.657155C2.22198 0.481666 1.93565 0.390119 1.64307 0.398336C1.35049 0.406552 1.07005 0.514017 0.85022 0.702156L10.4567 10.0472L13.7077 6.88216Z" fill="url(#paint3_linear_23630_38)"/>
<path opacity="0.2" d="M13.6154 13.1447L2.4527 19.3322C2.23029 19.494 1.96003 19.5815 1.68233 19.5815C1.40462 19.5815 1.13437 19.494 0.911958 19.3322L0.858032 19.3847L0.911958 19.4372C1.13387 19.6002 1.40431 19.6884 1.68233 19.6884C1.96035 19.6884 2.23079 19.6002 2.4527 19.4372L13.7078 13.2122L13.6154 13.1447Z" fill="black"/>
<path opacity="0.12" d="M0.858046 19.2871C0.606956 18.9938 0.48022 18.6183 0.503675 18.2371V18.3496C0.48022 18.7308 0.606956 19.1063 0.858046 19.3996L0.911972 19.3471L0.858046 19.2871ZM17.4672 11.0221L13.6154 13.1446L13.6847 13.2121L17.4672 11.1271C17.6819 11.029 17.8661 10.8774 18.0013 10.6878C18.1366 10.4982 18.2181 10.2772 18.2376 10.0471C18.1943 10.2561 18.1023 10.4527 17.9688 10.6217C17.8352 10.7908 17.6636 10.9277 17.4672 11.0221Z" fill="black"/>
<path opacity="0.25" d="M2.45253 0.761829L17.467 9.07183C17.6635 9.16621 17.835 9.30318 17.9686 9.4722C18.1021 9.64122 18.1941 9.8378 18.2374 10.0468C18.2179 9.81675 18.1364 9.59576 18.0012 9.40614C17.8659 9.21652 17.6817 9.06499 17.467 8.96683L2.45253 0.656828C1.37401 0.0643278 0.495789 0.559329 0.495789 1.75933V1.87183C0.5189 0.664328 1.38172 0.169329 2.45253 0.761829V0.761829Z" fill="white"/>
<defs>
<linearGradient id="paint0_linear_23630_38" x1="9.60945" y1="1.57966" x2="-2.97103" y2="14.5018" gradientUnits="userSpaceOnUse">
<stop stop-color="#00A0FF"/>
<stop offset="0.01" stop-color="#00A1FF"/>
<stop offset="0.26" stop-color="#00BEFF"/>
<stop offset="0.51" stop-color="#00D2FF"/>
<stop offset="0.76" stop-color="#00DFFF"/>
<stop offset="1" stop-color="#00E3FF"/>
</linearGradient>
<linearGradient id="paint1_linear_23630_38" x1="18.877" y1="10.0472" x2="0.241742" y2="10.0472" gradientUnits="userSpaceOnUse">
<stop stop-color="#FFE000"/>
<stop offset="0.41" stop-color="#FFBD00"/>
<stop offset="0.78" stop-color="#FFA500"/>
<stop offset="1" stop-color="#FF9C00"/>
</linearGradient>
<linearGradient id="paint2_linear_23630_38" x1="11.9437" y1="11.7721" x2="-5.12041" y2="29.292" gradientUnits="userSpaceOnUse">
<stop stop-color="#FF3A44"/>
<stop offset="1" stop-color="#C31162"/>
</linearGradient>
<linearGradient id="paint3_linear_23630_38" x1="-1.56104" y1="-4.81784" x2="6.05622" y2="3.00631" gradientUnits="userSpaceOnUse">
<stop stop-color="#32A071"/>
<stop offset="0.07" stop-color="#2DA771"/>
<stop offset="0.48" stop-color="#15CF74"/>
<stop offset="0.8" stop-color="#06E775"/>
<stop offset="1" stop-color="#00F076"/>
</linearGradient>
</defs>
</svg>
