<svg width="387" height="600" viewBox="0 0 387 600" fill="none" xmlns="http://www.w3.org/2000/svg">
<mask id="path-1-inside-1_32_335" fill="white">
<path d="M86.1938 573.26C86.1938 588.522 98.5915 601.025 113.788 599.622C147.663 596.493 180.828 587.618 211.842 573.313C251.237 555.143 286.223 528.644 314.387 495.644C342.551 462.645 363.222 423.929 374.975 382.167C386.728 340.405 389.284 296.591 382.466 253.746C375.648 210.901 359.618 170.045 335.482 133.994C311.346 97.9439 279.679 67.5571 242.663 44.9296C205.647 22.302 164.164 7.97211 121.074 2.928C87.1522 -1.04285 52.8703 0.815337 19.6974 8.35583C4.81578 11.7386 -3.08826 27.473 1.64896 41.9804C6.38618 56.4878 21.974 64.2429 36.9227 61.1704C62.429 55.928 88.6681 54.7779 114.648 57.8191C149.8 61.934 183.641 73.6241 213.838 92.0832C244.035 110.542 269.869 135.331 289.558 164.74C309.248 194.15 322.325 227.48 327.887 262.432C333.449 297.384 331.364 333.127 321.776 367.195C312.188 401.263 295.325 432.847 272.349 459.767C249.374 486.688 220.833 508.305 188.695 523.128C164.942 534.084 139.642 541.135 113.768 544.069C98.6044 545.789 86.1938 557.999 86.1938 573.26Z"/>
</mask>
<path d="M86.1938 573.26C86.1938 588.522 98.5915 601.025 113.788 599.622C147.663 596.493 180.828 587.618 211.842 573.313C251.237 555.143 286.223 528.644 314.387 495.644C342.551 462.645 363.222 423.929 374.975 382.167C386.728 340.405 389.284 296.591 382.466 253.746C375.648 210.901 359.618 170.045 335.482 133.994C311.346 97.9439 279.679 67.5571 242.663 44.9296C205.647 22.302 164.164 7.97211 121.074 2.928C87.1522 -1.04285 52.8703 0.815337 19.6974 8.35583C4.81578 11.7386 -3.08826 27.473 1.64896 41.9804C6.38618 56.4878 21.974 64.2429 36.9227 61.1704C62.429 55.928 88.6681 54.7779 114.648 57.8191C149.8 61.934 183.641 73.6241 213.838 92.0832C244.035 110.542 269.869 135.331 289.558 164.74C309.248 194.15 322.325 227.48 327.887 262.432C333.449 297.384 331.364 333.127 321.776 367.195C312.188 401.263 295.325 432.847 272.349 459.767C249.374 486.688 220.833 508.305 188.695 523.128C164.942 534.084 139.642 541.135 113.768 544.069C98.6044 545.789 86.1938 557.999 86.1938 573.26Z" stroke="url(#paint0_linear_32_335)" stroke-width="74" mask="url(#path-1-inside-1_32_335)"/>
<defs>
<linearGradient id="paint0_linear_32_335" x1="109.207" y1="22.2671" x2="93.8303" y2="589.178" gradientUnits="userSpaceOnUse">
<stop stop-color="white" stop-opacity="0"/>
<stop offset="1" stop-color="#09A66D"/>
</linearGradient>
</defs>
</svg>
