<svg width="30" height="30" viewBox="0 0 30 30" fill="none" xmlns="http://www.w3.org/2000/svg">
<path d="M21.4722 9H22.9217C24.1292 9 25.1392 8.1395 25.3712 7H23.9217C22.7147 7 21.7047 7.8605 21.4722 9Z" fill="#09A66D"/>
<path d="M10 4.5C10.0495 4.5 10.0975 4.506 10.147 4.5075L10.498 0.9975C10.5 0.703 10.297 0.5 10.0475 0.5H9.953C9.703 0.5 9.5 0.703 9.5 0.9525L9.8535 4.5075C9.9025 4.506 9.9505 4.5 10 4.5Z" fill="#09A66D"/>
<path d="M6 15C6 14.8295 6.0175 14.663 6.045 14.5H5V14.8425C5.3745 15.021 5.713 15.262 6 15.555V15Z" fill="#09A66D"/>
<path d="M5.59513 2.77806L7.30563 5.29606C7.43963 5.20956 7.57813 5.12956 7.72063 5.05606L6.69213 2.22756C6.68463 2.20756 6.67713 2.18906 6.66763 2.17106C6.59713 2.03006 6.48513 1.93256 6.34563 1.88656C6.20613 1.84006 6.05763 1.85106 5.92713 1.91656L5.80213 1.97906C5.53163 2.11406 5.42163 2.44406 5.55713 2.71456C5.56813 2.73456 5.58113 2.75706 5.59513 2.77806Z" fill="#09A66D"/>
<path d="M7.691 13.5H13.26L13.916 10.352C13.9715 10.084 14 9.8095 14 9.536C14 7.2945 12.2055 5.5 10 5.5C7.7945 5.5 6 7.2945 6 9.5C6 9.8095 6.0285 10.084 6.084 10.352L6.662 13.125C7.212 12.44 8.055 12 9 12V13C8.4975 13 8.043 13.1925 7.691 13.5ZM11.5 7.5H12.5V8.5H11.5V7.5ZM11.5 9.5H12.5V10.5H11.5V9.5ZM11.5 11.5H12.5V12.5H11.5V11.5Z" fill="#09A66D"/>
<path d="M4.50022 17.5H5.94972C5.71722 16.3605 4.70772 15.5 3.50022 15.5H2.05072C2.28272 16.6395 3.29272 17.5 4.50022 17.5Z" fill="#09A66D"/>
<path d="M14.4055 2.77655C14.4185 2.75655 14.432 2.73455 14.443 2.71205C14.5775 2.44355 14.4675 2.11355 14.197 1.97855L14.072 1.91605C13.941 1.85105 13.7935 1.83955 13.6535 1.88605C13.5145 1.93255 13.402 2.03005 13.3365 2.16105C13.3225 2.18905 13.3145 2.20755 13.3075 2.22655L12.279 5.05505C12.4215 5.12855 12.56 5.20855 12.6945 5.29505L14.4055 2.77655Z" fill="#09A66D"/>
<path d="M13.4921 23.5H27.5001V20.5H12.8261C13.2676 21.4285 13.4916 22.449 13.4921 23.5ZM25.5001 21.5H26.5001V22.5H25.5001V21.5Z" fill="#09A66D"/>
<path d="M12.2316 27.5H26.0001C26.8271 27.5 27.5001 26.827 27.5001 26V24.5H13.4281C13.2686 25.6015 12.8476 26.623 12.2316 27.5ZM25.5001 25.5H26.5001V26.5H25.5001V25.5Z" fill="#09A66D"/>
<path d="M7.071 14.5C7.029 14.661 7 14.8265 7 15V15.5H27.5H28H29.5V14.5H7.071Z" fill="#09A66D"/>
<path d="M7 17.9335C7.1005 17.909 7.201 17.8835 7.2925 17.844C8.8175 17.1915 10.5925 17.5835 11.7055 18.821C11.8995 19.0365 12.0735 19.2655 12.237 19.4995H27.5V16.4995H7V17.9335ZM25.5 17.5H26.5V18.5H25.5V17.5Z" fill="#09A66D"/>
<path d="M10.9625 19.4899C10.1485 18.5849 8.801 18.2854 7.686 18.7634C7.4715 18.8549 7.2395 18.9179 7 18.9564V19.8979C7.4965 19.7129 7.968 19.3234 8.147 19.1454L8.8535 19.8534C8.7365 19.9709 7.6735 20.9999 6.5 20.9999C5.3265 20.9999 4.2635 19.9709 4.1465 19.8534L4.853 19.1454C5.032 19.3229 5.5035 19.7124 6 19.8979V18.4999H4.5C4.3305 18.4999 4.1655 18.4839 4.0025 18.4604C3.3015 18.5104 2.5605 18.9024 2.0145 19.5154C1.038 20.6139 0.5 22.0284 0.5 23.4999C0.5 25.1464 1.154 26.6819 2.3405 27.8239C3.527 28.9654 5.08 29.5549 6.739 29.4954C9.8295 29.3759 12.3575 26.8619 12.4945 23.7724C12.564 22.1869 12.02 20.6659 10.9625 19.4899ZM6.5 28.4999C3.743 28.4999 1.5 26.2569 1.5 23.4999H2.5C2.5 25.7054 4.2945 27.4999 6.5 27.4999V28.4999Z" fill="#09A66D"/>
<path d="M25.3854 13.5C25.1464 12.571 24.6899 11.7115 24.0409 10.99C23.2264 10.085 21.8789 9.7865 20.7639 10.2635C20.6789 10.3 20.5899 10.3305 20.4999 10.359V6C20.4999 5.173 21.1729 4.5 21.9999 4.5H22.4999V3.5H21.9999C20.6214 3.5 19.4999 4.6215 19.4999 6V10.359C19.4099 10.3305 19.3209 10.3 19.2359 10.2635C18.1214 9.7865 16.7734 10.085 15.9589 10.99C15.3099 11.7115 14.8534 12.5705 14.6144 13.5H19.9999H25.3854ZM17.7534 11.069C17.7609 11.073 18.5179 11.5 19.9999 11.5C21.4819 11.5 22.2389 11.073 22.2464 11.069L22.7569 11.9285C22.7184 11.952 21.7844 12.5 19.9999 12.5C18.2154 12.5 17.2814 11.952 17.2424 11.9285L17.7534 11.069Z" fill="#09A66D"/>
</svg>
