<svg width="100" height="16" viewBox="0 0 100 16" fill="none" xmlns="http://www.w3.org/2000/svg">
<g clip-path="url(#clip0_32_342)">
<path d="M92.1331 10.0725L94.8051 11.568L94.208 8.5651L96.4559 6.48578L93.4153 6.12528L92.1331 3.3451V10.0725ZM92.1331 11.5145L87.6958 13.9984L88.6867 9.01053L84.9527 5.55779L90.0028 4.95885L92.1331 0.340942L94.2634 4.95885L99.3135 5.55779L95.5796 9.01053L96.5704 13.9984L92.1331 11.5145Z" fill="#F1B90B"/>
</g>
<g clip-path="url(#clip1_32_342)">
<path d="M7.57616 11.5146L3.13881 13.9984L4.12971 9.01059L0.395752 5.55786L5.44588 4.95891L7.57616 0.341003L9.70644 4.95891L14.7566 5.55786L11.0226 9.01059L12.0135 13.9984L7.57616 11.5146Z" fill="#F1B90B"/>
</g>
<g clip-path="url(#clip2_32_342)">
<path d="M28.7157 11.5145L24.2783 13.9984L25.2692 9.01053L21.5353 5.55779L26.5854 4.95885L28.7157 0.340942L30.846 4.95885L35.8961 5.55779L32.1621 9.01053L33.153 13.9984L28.7157 11.5145Z" fill="#F1B90B"/>
</g>
<g clip-path="url(#clip3_32_342)">
<path d="M49.8546 11.5145L45.4173 13.9984L46.4082 9.01053L42.6742 5.55779L47.7243 4.95885L49.8546 0.340942L51.9849 4.95885L57.035 5.55779L53.301 9.01053L54.2919 13.9984L49.8546 11.5145Z" fill="#F1B90B"/>
</g>
<g clip-path="url(#clip4_32_342)">
<path d="M70.9935 11.5145L66.5562 13.9984L67.5471 9.01053L63.8131 5.55779L68.8632 4.95885L70.9935 0.340942L73.1238 4.95885L78.1739 5.55779L74.44 9.01053L75.4309 13.9984L70.9935 11.5145Z" fill="#F1B90B"/>
</g>
<defs>
<clipPath id="clip0_32_342">
<rect width="15.0994" height="15.0994" fill="white" transform="translate(84.5833 0.0263062)"/>
</clipPath>
<clipPath id="clip1_32_342">
<rect width="15.0994" height="15.0994" fill="white" transform="translate(0.0263062 0.0263672)"/>
</clipPath>
<clipPath id="clip2_32_342">
<rect width="15.0994" height="15.0994" fill="white" transform="translate(21.1658 0.0263062)"/>
</clipPath>
<clipPath id="clip3_32_342">
<rect width="15.0994" height="15.0994" fill="white" transform="translate(42.3047 0.0263062)"/>
</clipPath>
<clipPath id="clip4_32_342">
<rect width="15.0994" height="15.0994" fill="white" transform="translate(63.4437 0.0263062)"/>
</clipPath>
</defs>
</svg>
